<svg width="182" height="68" viewBox="0 0 182 68" fill="none" xmlns="http://www.w3.org/2000/svg">
<path d="M20.308 31L16.02 14.936L11.732 31H6.804L0.916 8.024H5.652L9.364 23.608L13.588 8.024H18.548L22.644 23.672L26.388 8.024H31.156L25.236 31H20.308ZM35.4335 22.2H45.6095L46.8895 26.072H34.0255L35.4335 22.2ZM46.6655 31L40.5215 13.336L34.2495 31H29.3535L37.9935 8.024H43.3055L51.8815 31H46.6655ZM59.5445 31H54.6805V8.024H59.5445V31ZM74.515 31H69.651V12.408H62.419V8.024H81.779V12.408H74.515V31ZM100.137 26.776V31H84.6805V8.024H99.9125V12.248H89.5445V17.08H98.9525V21.272H89.5445V26.776H100.137ZM108.763 31H103.899V8.024H112.891C115.793 8.024 118.043 8.67467 119.643 9.976C121.243 11.256 122.043 13.0907 122.043 15.48C122.043 17.016 121.585 18.3813 120.667 19.576C119.771 20.7493 118.502 21.6027 116.859 22.136L122.779 31H116.987L111.803 22.872H108.763V31ZM108.763 12.056V18.872H112.667C114.139 18.872 115.259 18.5947 116.027 18.04C116.795 17.464 117.179 16.6107 117.179 15.48C117.179 14.328 116.795 13.4747 116.027 12.92C115.259 12.344 114.139 12.056 112.667 12.056H108.763ZM128.75 22.84H140.142L140.622 24.152H127.918L128.75 22.84ZM142.574 31L134.286 9.656L125.966 31H124.43L133.486 8.024H135.182L144.174 31H142.574ZM155.076 22.2H149.444V31H147.876V8.024H155.076C156.548 8.024 157.849 8.30133 158.98 8.856C160.132 9.41067 161.028 10.2107 161.668 11.256C162.329 12.3013 162.66 13.5813 162.66 15.096C162.66 16.6107 162.329 17.9013 161.668 18.968C161.028 20.0347 160.132 20.8453 158.98 21.4C157.849 21.9333 156.548 22.2 155.076 22.2ZM155.044 9.368H149.444V20.888H155.044C156.878 20.888 158.35 20.3867 159.46 19.384C160.569 18.3813 161.124 16.9627 161.124 15.128C161.124 13.272 160.569 11.8533 159.46 10.872C158.35 9.86933 156.878 9.368 155.044 9.368ZM173.732 22.2H168.1V31H166.532V8.024H173.732C175.204 8.024 176.505 8.30133 177.636 8.856C178.788 9.41067 179.684 10.2107 180.324 11.256C180.985 12.3013 181.316 13.5813 181.316 15.096C181.316 16.6107 180.985 17.9013 180.324 18.968C179.684 20.0347 178.788 20.8453 177.636 21.4C176.505 21.9333 175.204 22.2 173.732 22.2ZM173.7 9.368H168.1V20.888H173.7C175.534 20.888 177.006 20.3867 178.116 19.384C179.225 18.3813 179.78 16.9627 179.78 15.128C179.78 13.272 179.225 11.8533 178.116 10.872C177.006 9.86933 175.534 9.368 173.7 9.368Z" fill="white"/>
<path opacity="0.9" d="M32.4789 62.24C31.6469 62.24 30.8789 62.0853 30.1749 61.776C29.4709 61.4667 28.8575 61.04 28.3349 60.496C27.8122 59.952 27.4069 59.3173 27.1189 58.592C26.8309 57.856 26.6869 57.072 26.6869 56.24C26.6869 55.408 26.8309 54.6293 27.1189 53.904C27.4069 53.1787 27.8122 52.544 28.3349 52C28.8575 51.456 29.4709 51.0347 30.1749 50.736C30.8789 50.4267 31.6469 50.272 32.4789 50.272C33.3109 50.272 34.0789 50.4267 34.7829 50.736C35.4869 51.0347 36.1002 51.456 36.6229 52C37.1562 52.544 37.5669 53.1787 37.8549 53.904C38.1429 54.6293 38.2869 55.408 38.2869 56.24C38.2869 57.072 38.1429 57.856 37.8549 58.592C37.5669 59.3173 37.1562 59.952 36.6229 60.496C36.1002 61.04 35.4869 61.4667 34.7829 61.776C34.0789 62.0853 33.3109 62.24 32.4789 62.24ZM32.4789 61.168C33.1615 61.168 33.7802 61.0453 34.3349 60.8C34.8895 60.544 35.3695 60.192 35.7749 59.744C36.1802 59.2853 36.4895 58.7573 36.7029 58.16C36.9269 57.5627 37.0389 56.9227 37.0389 56.24C37.0389 55.5573 36.9269 54.9173 36.7029 54.32C36.4895 53.7227 36.1802 53.2053 35.7749 52.768C35.3695 52.32 34.8895 51.9733 34.3349 51.728C33.7802 51.472 33.1615 51.344 32.4789 51.344C31.8069 51.344 31.1882 51.472 30.6229 51.728C30.0682 51.9733 29.5882 52.32 29.1829 52.768C28.7775 53.2053 28.4629 53.7227 28.2389 54.32C28.0255 54.9173 27.9189 55.5573 27.9189 56.24C27.9189 56.9227 28.0255 57.5627 28.2389 58.16C28.4629 58.7573 28.7775 59.2853 29.1829 59.744C29.5882 60.192 30.0682 60.544 30.6229 60.8C31.1882 61.0453 31.8069 61.168 32.4789 61.168ZM45.05 57.84H50.602L50.938 58.816H44.57L45.05 57.84ZM51.642 62L47.77 51.792L43.866 62H42.682L47.146 50.512H48.458L52.906 62H51.642ZM62.2721 57.776C62.2721 58.64 62.1175 59.4027 61.8081 60.064C61.5095 60.7253 61.0828 61.2427 60.5281 61.616C59.9841 61.9787 59.3335 62.16 58.5761 62.16C57.9468 62.16 57.3761 61.9947 56.8641 61.664C56.3521 61.3333 55.9521 60.8693 55.6641 60.272V65.088H54.5441V53.568H55.5841V55.392C55.8721 54.7627 56.2828 54.2773 56.8161 53.936C57.3495 53.584 57.9361 53.408 58.5761 53.408C59.3228 53.408 59.9735 53.5947 60.5281 53.968C61.0828 54.3307 61.5095 54.8427 61.8081 55.504C62.1175 56.1547 62.2721 56.912 62.2721 57.776ZM61.1361 57.776C61.1361 56.7093 60.8801 55.8773 60.3681 55.28C59.8668 54.6827 59.2055 54.384 58.3841 54.384C57.8721 54.384 57.4081 54.5173 56.9921 54.784C56.5761 55.0507 56.2455 55.4347 56.0001 55.936C55.7655 56.4373 55.6481 57.0507 55.6481 57.776C55.6481 58.4693 55.7655 59.072 56.0001 59.584C56.2348 60.096 56.5601 60.4907 56.9761 60.768C57.3921 61.0453 57.8615 61.184 58.3841 61.184C59.2055 61.184 59.8668 60.8853 60.3681 60.288C60.8801 59.6907 61.1361 58.8533 61.1361 57.776ZM71.8034 57.776C71.8034 58.64 71.6487 59.4027 71.3394 60.064C71.0407 60.7253 70.614 61.2427 70.0594 61.616C69.5154 61.9787 68.8647 62.16 68.1074 62.16C67.478 62.16 66.9074 61.9947 66.3954 61.664C65.8834 61.3333 65.4834 60.8693 65.1954 60.272V65.088H64.0754V53.568H65.1154V55.392C65.4034 54.7627 65.814 54.2773 66.3474 53.936C66.8807 53.584 67.4674 53.408 68.1074 53.408C68.854 53.408 69.5047 53.5947 70.0594 53.968C70.614 54.3307 71.0407 54.8427 71.3394 55.504C71.6487 56.1547 71.8034 56.912 71.8034 57.776ZM70.6674 57.776C70.6674 56.7093 70.4114 55.8773 69.8994 55.28C69.398 54.6827 68.7367 54.384 67.9154 54.384C67.4034 54.384 66.9394 54.5173 66.5234 54.784C66.1074 55.0507 65.7767 55.4347 65.5314 55.936C65.2967 56.4373 65.1794 57.0507 65.1794 57.776C65.1794 58.4693 65.2967 59.072 65.5314 59.584C65.766 60.096 66.0914 60.4907 66.5074 60.768C66.9234 61.0453 67.3927 61.184 67.9154 61.184C68.7367 61.184 69.398 60.8853 69.8994 60.288C70.4114 59.6907 70.6674 58.8533 70.6674 57.776ZM76.3264 57.776C76.3264 56.912 76.4757 56.1547 76.7744 55.504C77.0837 54.8427 77.5157 54.3307 78.0704 53.968C78.625 53.5947 79.281 53.408 80.0384 53.408C80.6677 53.408 81.2384 53.5787 81.7504 53.92C82.2624 54.2507 82.657 54.72 82.9344 55.328V50.512H84.0544V62H83.0144V60.224C82.7157 60.832 82.305 61.3067 81.7824 61.648C81.2704 61.9893 80.689 62.16 80.0384 62.16C79.281 62.16 78.625 61.9787 78.0704 61.616C77.5157 61.2427 77.0837 60.7253 76.7744 60.064C76.4757 59.4027 76.3264 58.64 76.3264 57.776ZM77.4624 57.776C77.4624 58.8533 77.713 59.6907 78.2144 60.288C78.7157 60.8853 79.377 61.184 80.1984 61.184C80.753 61.184 81.233 61.0453 81.6384 60.768C82.0544 60.4907 82.3744 60.096 82.5984 59.584C82.833 59.0613 82.9504 58.448 82.9504 57.744C82.9504 57.04 82.8277 56.4373 82.5824 55.936C82.3477 55.4347 82.0224 55.0507 81.6064 54.784C81.201 54.5173 80.7317 54.384 80.1984 54.384C79.377 54.384 78.7157 54.6827 78.2144 55.28C77.713 55.8773 77.4624 56.7093 77.4624 57.776ZM89.8576 62.16C89.2816 62.16 88.7483 62.0533 88.2576 61.84C87.767 61.6267 87.3403 61.3227 86.9776 60.928C86.6256 60.5333 86.3483 60.0693 86.1456 59.536C85.9536 59.0027 85.8576 58.416 85.8576 57.776C85.8576 57.1467 85.9536 56.5653 86.1456 56.032C86.3483 55.4987 86.6256 55.04 86.9776 54.656C87.3403 54.2613 87.767 53.9573 88.2576 53.744C88.7483 53.5307 89.2816 53.424 89.8576 53.424C90.4443 53.424 90.983 53.5307 91.4736 53.744C91.9643 53.9573 92.3856 54.2613 92.7376 54.656C93.1003 55.04 93.3776 55.4987 93.5696 56.032C93.7723 56.5653 93.8736 57.1467 93.8736 57.776C93.8736 58.416 93.7723 59.0027 93.5696 59.536C93.3776 60.0693 93.1003 60.5333 92.7376 60.928C92.3856 61.3227 91.9643 61.6267 91.4736 61.84C90.983 62.0533 90.4443 62.16 89.8576 62.16ZM89.8576 61.2C90.4123 61.2 90.903 61.0613 91.3296 60.784C91.767 60.496 92.1083 60.096 92.3536 59.584C92.6096 59.072 92.7376 58.4693 92.7376 57.776C92.7376 57.0827 92.6096 56.4853 92.3536 55.984C92.1083 55.4827 91.767 55.0933 91.3296 54.816C90.903 54.5387 90.4123 54.4 89.8576 54.4C89.3136 54.4 88.823 54.5387 88.3856 54.816C87.959 55.0933 87.6176 55.4827 87.3616 55.984C87.1163 56.4853 86.9936 57.0827 86.9936 57.776C86.9936 58.4693 87.1163 59.072 87.3616 59.584C87.6176 60.096 87.959 60.496 88.3856 60.784C88.823 61.0613 89.3136 61.2 89.8576 61.2ZM104.261 62.24C103.439 62.24 102.677 62.0907 101.973 61.792C101.269 61.4933 100.65 61.0773 100.117 60.544C99.5938 60.0107 99.1832 59.3813 98.8845 58.656C98.5965 57.92 98.4525 57.12 98.4525 56.256C98.4525 55.4027 98.5912 54.6187 98.8685 53.904C99.1565 53.1787 99.5565 52.544 100.069 52C100.581 51.4453 101.183 51.0187 101.877 50.72C102.581 50.4213 103.349 50.272 104.181 50.272C105.183 50.272 106.063 50.4587 106.821 50.832C107.578 51.2053 108.207 51.7067 108.709 52.336C109.21 52.9653 109.567 53.6693 109.781 54.448H108.421C108.261 53.872 107.994 53.3493 107.621 52.88C107.247 52.4107 106.767 52.0373 106.181 51.76C105.605 51.4827 104.927 51.344 104.149 51.344C103.274 51.344 102.501 51.5573 101.829 51.984C101.157 52.4 100.629 52.976 100.245 53.712C99.8712 54.448 99.6845 55.3013 99.6845 56.272C99.6845 57.2107 99.8765 58.0533 100.261 58.8C100.645 59.5467 101.183 60.1333 101.877 60.56C102.57 60.9867 103.375 61.2 104.293 61.2C105.125 61.2 105.85 61.04 106.469 60.72C107.087 60.3893 107.583 59.9253 107.957 59.328C108.341 58.7307 108.581 58.032 108.677 57.232H104.165V56.256H109.925C109.925 57.1627 109.786 57.984 109.509 58.72C109.242 59.456 108.858 60.0907 108.357 60.624C107.855 61.1467 107.258 61.5467 106.565 61.824C105.882 62.1013 105.114 62.24 104.261 62.24ZM116.963 62V60.464C116.717 60.9867 116.349 61.4027 115.859 61.712C115.368 62.0107 114.792 62.16 114.131 62.16C113.256 62.16 112.557 61.936 112.035 61.488C111.512 61.0293 111.251 60.4213 111.251 59.664C111.251 58.8427 111.576 58.224 112.227 57.808C112.877 57.3813 113.843 57.168 115.123 57.168C115.379 57.168 115.629 57.1733 115.875 57.184C116.12 57.1947 116.445 57.2213 116.851 57.264V56.544C116.851 55.84 116.669 55.2907 116.307 54.896C115.955 54.5013 115.459 54.304 114.819 54.304C114.136 54.304 113.592 54.5067 113.187 54.912C112.781 55.3067 112.573 55.8453 112.562 56.528H111.539C111.549 55.8987 111.693 55.3547 111.971 54.896C112.248 54.4267 112.627 54.064 113.107 53.808C113.597 53.5413 114.163 53.408 114.803 53.408C115.795 53.408 116.563 53.68 117.107 54.224C117.651 54.768 117.923 55.5307 117.923 56.512V62H116.963ZM112.323 59.632C112.323 60.144 112.504 60.56 112.867 60.88C113.229 61.1893 113.704 61.344 114.291 61.344C115.08 61.344 115.704 61.1093 116.163 60.64C116.621 60.16 116.851 59.5253 116.851 58.736V57.984C116.488 57.952 116.173 57.9307 115.907 57.92C115.651 57.9093 115.405 57.904 115.171 57.904C114.221 57.904 113.507 58.048 113.027 58.336C112.557 58.6133 112.323 59.0453 112.323 59.632ZM121.399 57.488V62H120.279V53.568H121.319V55.488C121.617 54.8693 122.055 54.3733 122.631 54C123.207 53.6267 123.841 53.44 124.535 53.44V54.608C123.948 54.5867 123.415 54.688 122.935 54.912C122.465 55.136 122.092 55.4667 121.815 55.904C121.537 56.3413 121.399 56.8693 121.399 57.488ZM129.04 62.176C128.293 62.176 127.637 61.9893 127.072 61.616C126.507 61.2427 126.064 60.7253 125.744 60.064C125.424 59.4027 125.264 58.64 125.264 57.776C125.264 56.9227 125.424 56.1707 125.744 55.52C126.064 54.8587 126.507 54.3413 127.072 53.968C127.648 53.5947 128.304 53.408 129.04 53.408C129.691 53.408 130.277 53.5467 130.8 53.824C131.323 54.1013 131.749 54.496 132.08 55.008C132.421 55.52 132.645 56.128 132.752 56.832H131.616C131.488 56.064 131.195 55.4667 130.736 55.04C130.288 54.6027 129.723 54.384 129.04 54.384C128.517 54.384 128.053 54.528 127.648 54.816C127.253 55.104 126.944 55.4987 126.72 56C126.507 56.5013 126.4 57.0933 126.4 57.776C126.4 58.4587 126.507 59.0613 126.72 59.584C126.944 60.096 127.253 60.496 127.648 60.784C128.053 61.0613 128.517 61.2 129.04 61.2C129.733 61.2 130.304 60.9867 130.752 60.56C131.2 60.1227 131.488 59.5147 131.616 58.736H132.752C132.656 59.4507 132.437 60.064 132.096 60.576C131.765 61.088 131.339 61.4827 130.816 61.76C130.293 62.0373 129.701 62.176 129.04 62.176ZM130.624 63.888C130.624 64.272 130.469 64.5813 130.16 64.816C129.851 65.0507 129.461 65.168 128.992 65.168C128.523 65.168 128.123 65.0507 127.792 64.816C127.472 64.5813 127.28 64.2453 127.216 63.808H128C128.053 64.0533 128.165 64.2347 128.336 64.352C128.507 64.48 128.72 64.544 128.976 64.544C129.211 64.544 129.397 64.4747 129.536 64.336C129.685 64.208 129.76 64.048 129.76 63.856C129.76 63.6213 129.691 63.4347 129.552 63.296C129.424 63.168 129.253 63.0773 129.04 63.024C128.827 62.9707 128.597 62.96 128.352 62.992L128.72 61.84H129.392L129.136 62.592C129.573 62.624 129.931 62.7573 130.208 62.992C130.485 63.2267 130.624 63.5253 130.624 63.888ZM137.811 62.16C137.235 62.16 136.701 62.0533 136.211 61.84C135.72 61.6267 135.293 61.3227 134.931 60.928C134.579 60.5333 134.301 60.0693 134.099 59.536C133.907 59.0027 133.811 58.416 133.811 57.776C133.811 57.1467 133.907 56.5653 134.099 56.032C134.301 55.4987 134.579 55.04 134.931 54.656C135.293 54.2613 135.72 53.9573 136.211 53.744C136.701 53.5307 137.235 53.424 137.811 53.424C138.397 53.424 138.936 53.5307 139.427 53.744C139.917 53.9573 140.339 54.2613 140.691 54.656C141.053 55.04 141.331 55.4987 141.523 56.032C141.725 56.5653 141.827 57.1467 141.827 57.776C141.827 58.416 141.725 59.0027 141.523 59.536C141.331 60.0693 141.053 60.5333 140.691 60.928C140.339 61.3227 139.917 61.6267 139.427 61.84C138.936 62.0533 138.397 62.16 137.811 62.16ZM137.811 61.2C138.365 61.2 138.856 61.0613 139.283 60.784C139.72 60.496 140.061 60.096 140.307 59.584C140.563 59.072 140.691 58.4693 140.691 57.776C140.691 57.0827 140.563 56.4853 140.307 55.984C140.061 55.4827 139.72 55.0933 139.283 54.816C138.856 54.5387 138.365 54.4 137.811 54.4C137.267 54.4 136.776 54.5387 136.339 54.816C135.912 55.0933 135.571 55.4827 135.315 55.984C135.069 56.4853 134.947 57.0827 134.947 57.776C134.947 58.4693 135.069 59.072 135.315 59.584C135.571 60.096 135.912 60.496 136.339 60.784C136.776 61.0613 137.267 61.2 137.811 61.2ZM144.758 62H143.638V53.568H144.678V55.152C144.966 54.608 145.345 54.1813 145.814 53.872C146.294 53.5627 146.833 53.408 147.43 53.408C148.091 53.408 148.651 53.5787 149.11 53.92C149.579 54.2613 149.899 54.7413 150.07 55.36C150.326 54.7627 150.71 54.288 151.222 53.936C151.734 53.584 152.321 53.408 152.982 53.408C153.857 53.408 154.545 53.6853 155.046 54.24C155.558 54.784 155.814 55.5467 155.814 56.528V62H154.71V56.896C154.71 56.0853 154.529 55.4667 154.166 55.04C153.814 54.6027 153.297 54.384 152.614 54.384C152.187 54.384 151.798 54.5013 151.446 54.736C151.094 54.96 150.811 55.2747 150.598 55.68C150.395 56.0747 150.294 56.5333 150.294 57.056V62H149.174V56.896C149.174 56.0853 148.998 55.4667 148.646 55.04C148.294 54.6027 147.771 54.384 147.078 54.384C146.651 54.384 146.257 54.5013 145.894 54.736C145.542 54.96 145.265 55.2747 145.062 55.68C144.859 56.0747 144.758 56.5333 144.758 57.056V62Z" fill="white"/>
</svg>
